<svg xmlns="http://www.w3.org/2000/svg" width="13" height="13" viewBox="0 0 13 13"><g><g><path fill="#fff" d="M6.774 4.395c.206 0 .371.165.35.372l-.164 3.92c0 .186-.166.33-.351.33h-.227c-.186 0-.351-.144-.351-.33l-.165-3.92c-.02-.186.144-.372.35-.372zm.433 6.356a.37.37 0 0 1-.371.371h-.66a.37.37 0 0 1-.372-.371v-.681a.37.37 0 0 1 .371-.372h.66a.37.37 0 0 1 .372.372zm5.695.97L7.29.495A.862.862 0 0 0 6.506 0c-.33 0-.64.186-.785.495L.088 11.721c-.124.289-.124.598.041.866A.847.847 0 0 0 .872 13h11.246c.31 0 .578-.165.743-.413a.867.867 0 0 0 .041-.866z"/></g></g></svg>