<svg xmlns="http://www.w3.org/2000/svg" width="17.999" height="14" viewBox="0 0 17.999 14">
  <g id="Tel_approve_ღილაკი" data-name="Tel approve ღილაკი" transform="translate(-161 -1284)">
    <g id="correct-symbol_1_" data-name="correct-symbol (1)" transform="translate(161 1232.322)">
      <path id="Path_5496" data-name="Path 5496" d="M17.674,53.611l-1.579-1.6a1.11,1.11,0,0,0-1.579,0L6.9,59.75,3.484,56.274a1.067,1.067,0,0,0-.79-.33,1.067,1.067,0,0,0-.79.33l-1.579,1.6a1.15,1.15,0,0,0,0,1.6l4.2,4.266,1.579,1.6a1.11,1.11,0,0,0,1.579,0l1.579-1.6,8.407-8.532a1.15,1.15,0,0,0,0-1.6Z" transform="translate(0 0)" fill="#72b55b"/>
    </g>
  </g>
</svg>
