<svg xmlns="http://www.w3.org/2000/svg" width="21.161" height="7.919" viewBox="0 0 21.161 7.919">
  <path id="arrow_simple_1" d="M147.787,711.011H132.5l1.707-1.281a.827.827,0,0,0,0-1.4,1.645,1.645,0,0,0-1.867,0L128.38,711.3a1.011,1.011,0,0,0-.264.294.693.693,0,0,0-.046.1.727.727,0,0,0-.063.244.525.525,0,0,0,0,.1.765.765,0,0,0,.08.311.222.222,0,0,0,.009.027h0a1.033,1.033,0,0,0,.264.291c.011.009.015.021.026.03l3.958,2.971a1.647,1.647,0,0,0,1.867,0,.827.827,0,0,0,0-1.4l-1.707-1.281h15.283a1.453,1.453,0,0,0,1.192-.478.79.79,0,0,0,0-1.022,1.453,1.453,0,0,0-1.192-.478Z" transform="translate(149.166 715.959) rotate(-180)" fill="#c03357" fill-rule="evenodd"/>
</svg>
