<svg xmlns="http://www.w3.org/2000/svg" width="22" height="8" viewBox="0 0 22 8"><g><g><path fill="#c03357" d="M19.783 3.052H4.493L6.2 1.771c.248-.185.387-.437.387-.7 0-.263-.14-.515-.387-.7-.517-.387-1.349-.387-1.866 0L.376 3.342c-.111.085-.2.184-.264.294a.692.692 0 0 0-.046.1.727.727 0 0 0-.063.344.765.765 0 0 0 .08.31c.003.01.006.02.01.028.064.108.153.207.263.29.01.01.015.022.027.031L4.34 7.71c.518.387 1.35.387 1.867 0 .247-.185.387-.437.387-.7 0-.263-.14-.515-.387-.7L4.5 5.029h15.283c.483.02.942-.163 1.191-.478a.79.79 0 0 0 0-1.021c-.25-.315-.708-.498-1.191-.478z"/></g></g></svg>