<svg xmlns="http://www.w3.org/2000/svg" width="38" height="29" viewBox="0 0 38 29"><g><g><path fill="#c13458" d="M17.195.319c2.97 0 5.531 1.775 6.704 4.323l-1.01.065c-1.085-2.048-3.229-3.445-5.694-3.445-2.358 0-4.418 1.281-5.543 3.183l-1.045-.048C11.828 1.982 14.32.319 17.195.319zm11.647 1.225a6.704 6.704 0 0 1 3.837 2.529l-1.069.069a5.823 5.823 0 0 0-2.968-1.752 5.81 5.81 0 0 0-4.995 1.125 7.274 7.274 0 0 0-.516-.703 6.682 6.682 0 0 1 5.71-1.268zm-.518 2.198c.466.11.895.294 1.283.53l-5.063.328a4.402 4.402 0 0 1 3.78-.858zm1.71.502a4.682 4.682 0 0 0-5.828.29 7.747 7.747 0 0 0-.419-.796 5.548 5.548 0 0 1 4.795-1.096 5.55 5.55 0 0 1 2.69 1.522zm-7.848.509l-.502.388a5.185 5.185 0 0 0-4.49-2.61 5.17 5.17 0 0 0-4.065 1.982l-1.115-.051c1.088-1.727 3.001-2.88 5.18-2.88 2.291 0 4.29 1.272 5.343 3.148zM20.68 5.919a3.933 3.933 0 0 0-3.484-2.124c-1.203 0-2.28.546-3.003 1.404l-.587-.612-.05-.053-.027-.001a4.848 4.848 0 0 1 3.667-1.682A4.867 4.867 0 0 1 21.43 5.34zm-1.017.786a2.68 2.68 0 0 0-2.467-1.649c-.866 0-1.634.417-2.123 1.06l-.66-.687a3.603 3.603 0 0 1 2.783-1.314c1.41 0 2.63.817 3.226 2.003zm-1.073.83a1.415 1.415 0 0 0-1.394-1.21 1.41 1.41 0 0 0-1.226.726l-.674-.703c.43-.587 1.12-.97 1.9-.97 1.008 0 1.866.638 2.203 1.532zm-.298.23l-.94.728-1.153-1.203c.174-.38.554-.645.996-.645.606 0 1.098.495 1.098 1.105l-.001.016zm14.69-3.712a6.97 6.97 0 0 0-4.08-2.761 6.944 6.944 0 0 0-5.94 1.322A7.671 7.671 0 0 0 17.196 0c-2.92 0-5.464 1.64-6.773 4.05l-.532.314-.32-.014-.875-.04L0 3.91l4.27 3.816 2.874 17.07c.011.068.06.126.125.149l11.3 4.043c.022.008.044.012.065.012.03 0 .06-.014.088-.03.028.016.057.03.089.03.014 0 .03-.002.045-.006l12.171-2.98a.195.195 0 0 0 .143-.147l2.371-17.826C33.554 7.98 38 3.727 38 3.727z"/></g></g></svg>