<svg id="Component_1_1" data-name="Component 1 – 1" xmlns="http://www.w3.org/2000/svg" width="102" height="102" viewBox="0 0 102 102">
  <g id="Ellipse_99" data-name="Ellipse 99" fill="none" stroke="#c13458" stroke-width="2">
    <circle cx="51" cy="51" r="51" stroke="none"/>
    <circle cx="51" cy="51" r="50" fill="none"/>
  </g>
  <g id="noun_Alert_1494759" transform="translate(14.828 16.2)">
    <path id="Path_95" data-name="Path 95" d="M52.208,47.9,38.272,20.03a2.156,2.156,0,0,0-3.894,0L20.391,47.9a2.287,2.287,0,0,0,.1,2.152,2.1,2.1,0,0,0,1.844,1.025H50.262a2.219,2.219,0,0,0,1.844-1.025A2.153,2.153,0,0,0,52.208,47.9ZM38.068,45.493a.918.918,0,0,1-.922.922h-1.64a.918.918,0,0,1-.922-.922V43.8a.918.918,0,0,1,.922-.922h1.64a.918.918,0,0,1,.922.922Zm-2.459-15.78h1.383a.847.847,0,0,1,.871.922l-.41,9.735a.854.854,0,0,1-.871.82h-.564a.854.854,0,0,1-.871-.82l-.41-9.735A.874.874,0,0,1,35.608,29.713Z" transform="translate(0 0)" fill="#c13458"/>
  </g>
</svg>
