<svg xmlns="http://www.w3.org/2000/svg" width="15" height="10.228" viewBox="0 0 15 10.228">
  <g id="noun_Credit_Card_491512" data-name="noun_Credit Card_491512" transform="translate(-68.5 -124.8)">
    <g id="Group_64" data-name="Group 64" transform="translate(68.5 124.8)">
      <path id="Path_5615" data-name="Path 5615" d="M81.249,124.8h-10.5a2.225,2.225,0,0,0-2.251,2.193v5.842a2.225,2.225,0,0,0,2.251,2.193h10.5a2.225,2.225,0,0,0,2.251-2.193v-5.846A2.227,2.227,0,0,0,81.249,124.8Zm-10.5,1.46h10.5a.744.744,0,0,1,.752.732v.732H70v-.736A.741.741,0,0,1,70.751,126.26Zm10.5,7.3h-10.5a.744.744,0,0,1-.752-.732v-3.653H82v3.653A.743.743,0,0,1,81.249,133.563Z" transform="translate(-68.5 -124.8)" fill="#c13458"/>
      <rect id="Rectangle_1633" data-name="Rectangle 1633" width="3.067" height="1.534" transform="translate(8.947 5.793)" fill="#c13458"/>
    </g>
  </g>
</svg>
