<svg xmlns="http://www.w3.org/2000/svg" width="13" height="13" viewBox="0 0 13 13">
  <path id="bag_3" d="M300.627,515.8a1.625,1.625,0,0,0-1.218-.549h-.178l-.659-2.635a.811.811,0,0,0-.787-.615h-6.5a.817.817,0,0,0-.789.615l-.658,2.635h-.178a1.624,1.624,0,0,0-1.612,1.826l.812,6.5A1.626,1.626,0,0,0,290.472,525H298.6a1.626,1.626,0,0,0,1.613-1.423l.813-6.5A1.626,1.626,0,0,0,300.627,515.8Zm-8.708-2.174h5.232l.409,1.625h-6.044Zm-1.447,9.75-.813-6.5h9.75l-.813,6.5h-8.125Zm2.44-4.875a.815.815,0,0,0-.812.813v1.625a.806.806,0,0,0,.4.721.817.817,0,0,0,.827,0,.806.806,0,0,0,.4-.721v-1.625A.815.815,0,0,0,292.911,518.5Zm3.25,0a.815.815,0,0,0-.813.813v1.625a.813.813,0,0,0,1.625,0v-1.625a.815.815,0,0,0-.815-.812Z" transform="translate(-288.035 -512)" fill="#c13458" fill-rule="evenodd"/>
</svg>
