<svg xmlns="http://www.w3.org/2000/svg" width="145" height="145" viewBox="0 0 145 145">
  <g id="noun_Cafe_1728088" transform="translate(-2 -2)">
    <g id="Group_62" data-name="Group 62" transform="translate(2 2)">
      <g id="Group_50" data-name="Group 50" transform="translate(2.072)">
        <path id="Path_5598" data-name="Path 5598" d="M15.114,56.375a13.33,13.33,0,0,1-9.667-4.531A11.824,11.824,0,0,1,3.031,41.271l7.25-36.854A2.864,2.864,0,0,1,13,2H30.218a3.43,3.43,0,0,1,2.417.906,2.349,2.349,0,0,1,.6,2.417L27.5,45.5A12.19,12.19,0,0,1,15.114,56.375Zm.6-48.333L8.77,42.479a7,7,0,0,0,1.208,5.438,6.452,6.452,0,0,0,5.135,2.417,6.274,6.274,0,0,0,6.344-5.74L26.9,8.042Z" transform="translate(-2.686 -2)" fill="#c13458"/>
      </g>
      <g id="Group_51" data-name="Group 51" transform="translate(21.09 0)">
        <path id="Path_5599" data-name="Path 5599" d="M21.725,56.375h0a12.561,12.561,0,0,1-9.667-4.229,13.162,13.162,0,0,1-3.021-9.969L14.173,4.719A3.212,3.212,0,0,1,17.194,2H34.413a2.742,2.742,0,0,1,2.115.906,3.43,3.43,0,0,1,.906,2.417L34.11,44.9A12.282,12.282,0,0,1,21.725,56.375ZM20.215,8.042l-4.833,34.74a6.511,6.511,0,0,0,1.51,5.135,6.011,6.011,0,0,0,4.833,2.115h0a6.326,6.326,0,0,0,6.344-6.042L31.09,7.74H20.215Z" transform="translate(-8.981 -2)" fill="#c13458"/>
      </g>
      <g id="Group_52" data-name="Group 52" transform="translate(40.434 0)">
        <path id="Path_5600" data-name="Path 5600" d="M28.118,56.375h0A12.456,12.456,0,0,1,15.431,42.781L18.753,4.719A2.98,2.98,0,0,1,21.774,2H38.993a2.742,2.742,0,0,1,2.115.906,3.263,3.263,0,0,1,.906,2.115L40.806,44.292A12.652,12.652,0,0,1,28.118,56.375ZM24.493,8.042,21.472,43.385a5.01,5.01,0,0,0,1.812,4.833,7.129,7.129,0,0,0,4.833,2.115h.3a6.644,6.644,0,0,0,6.646-6.344l.6-35.948Z" transform="translate(-15.385 -2)" fill="#c13458"/>
      </g>
      <g id="Group_53" data-name="Group 53" transform="translate(59.51)">
        <path id="Path_5601" data-name="Path 5601" d="M34.69,56.375h0a12.113,12.113,0,0,1-9.365-3.927A12.79,12.79,0,0,1,21.7,43.385L23.21,5.021A3.249,3.249,0,0,1,26.231,2H43.45a3.027,3.027,0,0,1,3.021,3.021l1.208,38.667a12.79,12.79,0,0,1-3.625,9.062A13.507,13.507,0,0,1,34.69,56.375ZM28.95,8.042l-.906,35.646a7.407,7.407,0,0,0,1.813,4.833,7.038,7.038,0,0,0,4.531,2.115h.3a5.435,5.435,0,0,0,4.531-2.115,6.86,6.86,0,0,0,1.813-4.833l-.6-35.646Z" transform="translate(-21.7 -2)" fill="#c13458"/>
      </g>
      <g id="Group_54" data-name="Group 54" transform="translate(77.938)">
        <path id="Path_5602" data-name="Path 5602" d="M41.7,56.375h0c-6.948,0-12.688-5.437-12.688-12.083L27.8,5.021a2.742,2.742,0,0,1,.906-2.115A3.263,3.263,0,0,1,30.821,2H48.04A2.98,2.98,0,0,1,51.06,4.719l3.323,38.063a12.691,12.691,0,0,1-3.323,9.667A13.253,13.253,0,0,1,41.7,56.375ZM34.144,8.042,35.05,43.99A6.451,6.451,0,0,0,41.7,50.333H42a6.011,6.011,0,0,0,4.833-2.115,6.86,6.86,0,0,0,1.812-4.833L45.321,8.042Z" transform="translate(-27.8 -2)" fill="#c13458"/>
      </g>
      <g id="Group_55" data-name="Group 55" transform="translate(95.156)">
        <path id="Path_5603" data-name="Path 5603" d="M49.51,56.375h0A12.784,12.784,0,0,1,36.823,44.9L33.5,5.323a3.43,3.43,0,0,1,.906-2.417A2.742,2.742,0,0,1,36.521,2H53.74A3.212,3.212,0,0,1,56.76,4.719L61.9,42.177a12.059,12.059,0,0,1-3.021,9.969A12.387,12.387,0,0,1,49.51,56.375ZM39.844,8.042l3.021,36.25a6.539,6.539,0,0,0,6.344,6.042h0a7.129,7.129,0,0,0,4.833-2.115,6.511,6.511,0,0,0,1.51-5.135L51.021,8.042Z" transform="translate(-33.5 -2)" fill="#c13458"/>
      </g>
      <g id="Group_56" data-name="Group 56" transform="translate(112.375)">
        <path id="Path_5604" data-name="Path 5604" d="M57.325,56.375A12.405,12.405,0,0,1,44.94,45.5L39.2,5.323a3.255,3.255,0,0,1,.6-2.417A3.43,3.43,0,0,1,42.221,2H59.44A2.942,2.942,0,0,1,62.46,4.417l6.948,36.854A12.527,12.527,0,0,1,66.69,51.542C64.273,54.26,60.95,56.375,57.325,56.375ZM45.544,8.042l5.135,36.552a6.492,6.492,0,0,0,6.344,5.74,6.916,6.916,0,0,0,5.135-2.417,5.8,5.8,0,0,0,1.208-5.438L56.721,8.042Z" transform="translate(-39.2 -2)" fill="#c13458"/>
      </g>
      <g id="Group_57" data-name="Group 57" transform="translate(9.063 51.354)">
        <path id="Path_5605" data-name="Path 5605" d="M128.854,100.563H8.021A2.854,2.854,0,0,1,5,97.542V19h6.042V94.521H125.833V19h6.042V97.542A2.854,2.854,0,0,1,128.854,100.563Z" transform="translate(-5 -19)" fill="#c13458"/>
      </g>
      <g id="Group_58" data-name="Group 58" transform="translate(0 126.875)">
        <path id="Path_5606" data-name="Path 5606" d="M143.979,62.125H5.021A2.854,2.854,0,0,1,2,59.1V47.021A2.854,2.854,0,0,1,5.021,44H143.979A2.854,2.854,0,0,1,147,47.021V59.1A2.854,2.854,0,0,1,143.979,62.125ZM8.042,56.083H140.958V50.042H8.042Z" transform="translate(-2 -44)" fill="#c13458"/>
      </g>
      <g id="Group_59" data-name="Group 59" transform="translate(87.604 66.458)">
        <path id="Path_5607" data-name="Path 5607" d="M64.229,90.458H34.021A2.854,2.854,0,0,1,31,87.438V27.021A2.854,2.854,0,0,1,34.021,24H64.229a2.854,2.854,0,0,1,3.021,3.021V87.438A2.854,2.854,0,0,1,64.229,90.458ZM37.042,84.417H61.208V30.042H37.042Z" transform="translate(-31 -24)" fill="#c13458"/>
      </g>
      <g id="Group_60" data-name="Group 60" transform="translate(30.208 66.458)">
        <path id="Path_5608" data-name="Path 5608" d="M60.333,66.292H54.292V30.042H18.042v36.25H12V27.021A2.854,2.854,0,0,1,15.021,24H57.313a2.854,2.854,0,0,1,3.021,3.021Z" transform="translate(-12 -24)" fill="#c13458"/>
      </g>
      <g id="Group_61" data-name="Group 61" transform="translate(27.188 105.729)">
        <path id="Path_5609" data-name="Path 5609" d="M62.354,43.042H14.021a3.021,3.021,0,1,1,0-6.042H62.354a3.021,3.021,0,0,1,0,6.042Z" transform="translate(-11 -37)" fill="#c13458"/>
      </g>
    </g>
  </g>
</svg>
