<svg xmlns="http://www.w3.org/2000/svg" width="13" height="15" viewBox="0 0 13 15">
  <g id="noun_Delete_2206208" transform="translate(-7 -6)">
    <path id="Path_5505" data-name="Path 5505" d="M10.08,15l.768,9.93a1.422,1.422,0,0,0,1.425,1.295H18.72a1.425,1.425,0,0,0,1.437-1.317L20.775,15Zm4.2,8.3a.315.315,0,0,1-.319.311h-.515a.315.315,0,0,1-.319-.311V17.181a.315.315,0,0,1,.319-.311h.515a.315.315,0,0,1,.319.311Zm3.457,0a.315.315,0,0,1-.319.311H16.9a.315.315,0,0,1-.319-.311V17.181a.315.315,0,0,1,.319-.311h.515a.315.315,0,0,1,.319.311Z" transform="translate(-1.928 -5.225)" fill="#fff"/>
    <path id="Path_5506" data-name="Path 5506" d="M15.794,6.561h0A.567.567,0,0,0,15.221,6H11.779a.567.567,0,0,0-.574.561h0a.567.567,0,0,1-.574.561H7.574A.567.567,0,0,0,7,7.684v.374a.567.567,0,0,0,.574.561H19.426A.567.567,0,0,0,20,8.058V7.684a.567.567,0,0,0-.574-.561H16.368A.567.567,0,0,1,15.794,6.561Z" fill="#fff"/>
  </g>
</svg>
