<svg xmlns="http://www.w3.org/2000/svg" width="16" height="16" viewBox="0 0 16 16"><g><g><path fill="#a8a8a8" d="M12.986 13.36c0 .648-.528 1.141-1.159 1.141H2.66c-.648 0-1.16-.51-1.16-1.14V4.163c0-.63.529-1.14 1.16-1.14h4.686l1.483-1.482h-6.17C1.194 1.542 0 2.717 0 4.164v9.196A2.647 2.647 0 0 0 2.659 16h9.185a2.647 2.647 0 0 0 2.659-2.64V7.178L13.02 8.66v4.7z"/></g><g><path fill="#a8a8a8" d="M13.74 3.74l-1.466-1.466.825-.824 1.48 1.48zM7.97 9.523l-1.572.092.092-1.572.442-.443 1.48 1.48zm3.358-6.303l1.48 1.48L9.375 8.12l-1.48-1.48zm4.38-1.054L13.847.321A1.079 1.079 0 0 0 13.1 0c-.29 0-.55.107-.748.305L5.482 7.174c-.183.183-.29.427-.305.687l-.122 1.968c-.015.306.091.611.305.825.199.198.473.305.748.305h.061l1.984-.122c.26-.015.504-.122.687-.305l6.853-6.854c.199-.198.306-.473.306-.747a1 1 0 0 0-.29-.764z"/></g></g></svg>