<svg xmlns="http://www.w3.org/2000/svg" width="18" height="15" viewBox="0 0 18 15"><g><g><path fill="#c13458" d="M17.756 7.501c0 .023 0 .045-.002.064a.866.866 0 0 1-.116.367 2.24 2.24 0 0 1-.19.227l-.007.008c-.089.093-.205.209-.353.357l-2.234 2.234a.854.854 0 0 1-.61.253.853.853 0 0 1-.61-.253.858.858 0 0 1 0-1.217s.567-.57 1.178-1.177H7.008a.863.863 0 0 1 0-1.725h7.804l-1.177-1.177a.861.861 0 1 1 1.22-1.22l2.647 2.648a.863.863 0 0 1 .254.611z"/></g><g><path fill="#c13458" d="M12.326 11.874c.312.355.28.9-.068 1.217A7.256 7.256 0 0 1 7.357 15C3.3 15 0 11.635 0 7.501c0-4.136 3.3-7.5 7.357-7.5 1.811 0 3.553.677 4.901 1.908.348.318.38.863.068 1.217a.834.834 0 0 1-1.193.07 5.59 5.59 0 0 0-3.776-1.471C4.233 1.725 1.69 4.316 1.69 7.5c0 3.186 2.542 5.775 5.666 5.775a5.6 5.6 0 0 0 3.776-1.469.833.833 0 0 1 1.193.067z"/></g></g></svg>