<svg xmlns="http://www.w3.org/2000/svg" width="19" height="10" viewBox="0 0 19 10"><g><g><path fill="#a8a8a8" d="M9.5 8.083c-1.727 0-3.158-1.444-3.158-3.25 0-1.805 1.43-3.222 3.158-3.222 1.727 0 3.158 1.445 3.158 3.25 0 1.806-1.43 3.222-3.158 3.222zm6.64-5.777C14.033.806 11.74 0 9.5 0 7.26 0 4.966.806 2.86 2.306 1.296 3.416.379 4.556.325 4.583L0 5l.324.389c.027.055.944 1.167 2.537 2.278C4.966 9.194 7.26 10 9.5 10s4.534-.806 6.64-2.306c1.564-1.11 2.482-2.25 2.536-2.277l.324-.39-.324-.416c-.054-.055-.971-1.167-2.537-2.305z"/></g><g><path fill="#a8a8a8" d="M8.167 4.833a1.333 1.333 0 1 1 2.666 0 1.333 1.333 0 0 1-2.666 0z"/></g></g></svg>