<svg xmlns="http://www.w3.org/2000/svg" width="5" height="12" viewBox="0 0 5 12"><g><g><path fill="#fff" d="M1.5 2.727h2a.462.462 0 0 0 .352-.162A.55.55 0 0 0 4 2.182V.545a.55.55 0 0 0-.148-.383A.462.462 0 0 0 3.5 0h-2a.462.462 0 0 0-.352.162A.549.549 0 0 0 1 .545v1.637c0 .148.05.275.148.383a.462.462 0 0 0 .352.162z"/></g><g><path fill="#fff" d="M4.852 9.98a.462.462 0 0 0-.352-.162H4V4.909a.549.549 0 0 0-.148-.383.462.462 0 0 0-.352-.162h-3a.462.462 0 0 0-.352.162.548.548 0 0 0-.148.383v1.09c0 .149.05.276.148.384a.461.461 0 0 0 .352.162H1v3.273H.5a.462.462 0 0 0-.352.162.548.548 0 0 0-.148.384v1.09c0 .148.05.276.148.384A.462.462 0 0 0 .5 12h4a.462.462 0 0 0 .352-.162.55.55 0 0 0 .148-.384v-1.09a.547.547 0 0 0-.148-.384z"/></g></g></svg>