<svg xmlns="http://www.w3.org/2000/svg" width="8" height="16" viewBox="0 0 8 16"><g><g><path fill="#7c7c7c" d="M2.333 3.75h3.334c.226 0 .42-.074.586-.222A.688.688 0 0 0 6.5 3V.75a.688.688 0 0 0-.247-.527A.848.848 0 0 0 5.667 0H2.333a.848.848 0 0 0-.586.223A.688.688 0 0 0 1.5.75V3c0 .203.082.38.247.528.165.148.36.222.586.222z"/></g><g><path fill="#7c7c7c" d="M7.763 13.222A.794.794 0 0 0 7.2 13h-.8V6.25a.7.7 0 0 0-.237-.528A.795.795 0 0 0 5.6 5.5H.8a.795.795 0 0 0-.562.223A.699.699 0 0 0 0 6.25v1.5a.7.7 0 0 0 .238.528A.794.794 0 0 0 .8 8.5h.8V13H.8a.795.795 0 0 0-.562.222.699.699 0 0 0-.238.528v1.5a.7.7 0 0 0 .238.527A.796.796 0 0 0 .8 16h6.4a.796.796 0 0 0 .563-.223A.7.7 0 0 0 8 15.25v-1.5a.698.698 0 0 0-.237-.528z"/></g></g></svg>