<svg xmlns="http://www.w3.org/2000/svg" width="30" height="29" viewBox="0 0 30 29"><g><g><path fill="#c13458" d="M10.61 4.833c0-.632.475-1.115 1.097-1.115h6.586c.622 0 1.097.483 1.097 1.115 0 .595-.475 1.116-1.097 1.116h-6.586c-.622 0-1.097-.52-1.097-1.116zm-1.464 0c0 1.45 1.135 2.603 2.561 2.603h6.586c1.427 0 2.56-1.153 2.56-2.603 0-1.45-1.133-2.602-2.56-2.602h-6.586c-1.426 0-2.56 1.152-2.56 2.602zM2.634 9.667L7.683.744A1.471 1.471 0 0 1 8.963 0h12.11c.512 0 1.025.297 1.28.744l5.05 8.923zm26.854 3.718H.548l1.245-2.231h26.414zM30 14.872v12.64c0 .819-.658 1.488-1.463 1.488H1.463C.66 29 0 28.33 0 27.513V14.872zm-2.195-7.399l-2.963-5.242h1.5c.804 0 1.463.669 1.463 1.487zM5.159 2.231L2.195 7.473V3.718c0-.818.659-1.487 1.464-1.487z"/></g></g></svg>