<svg id="mastercard" xmlns="http://www.w3.org/2000/svg" width="14" height="9" viewBox="0 0 14 9">
  <path id="Path_5502" data-name="Path 5502" d="M9.173,59.219a4.543,4.543,0,0,1-4.586,4.5,4.5,4.5,0,1,1,0-9A4.544,4.544,0,0,1,9.173,59.219Z" transform="translate(0 -54.719)" fill="#e2574c"/>
  <path id="Path_5503" data-name="Path 5503" d="M114.018,54.719a4.619,4.619,0,0,0-2.741.9h0a3.9,3.9,0,0,1,.445.407l-.954.015a4.651,4.651,0,0,0-.414.477h1.683a4.192,4.192,0,0,1,.354.448h-2.342a4.456,4.456,0,0,0-.234.449h2.843a3.8,3.8,0,0,1,.2.434h-3.208a4.267,4.267,0,0,0-.128.476h3.47c.034.156.06.3.078.446h-3.617a4.422,4.422,0,0,0-.023.45H113.1a3.877,3.877,0,0,1-.028.45h-3.615a4.526,4.526,0,0,0,.069.45h3.465c-.036.146-.077.292-.129.445h-3.219a4.32,4.32,0,0,0,.172.449h2.849a4.081,4.081,0,0,1-.267.448h-2.349a4.37,4.37,0,0,0,.306.452l1.69.025a4.443,4.443,0,0,1-.5.42c.009.007-.269,0-.818-.009a4.614,4.614,0,0,0,3.293,1.371,4.5,4.5,0,1,0,0-9Z" transform="translate(-104.606 -54.719)" fill="#f4b459"/>
</svg>
