<svg xmlns="http://www.w3.org/2000/svg" width="16" height="17" viewBox="0 0 16 17"><g><g><path fill="#7c7c7c" d="M5.806 1.337c2.57.846 3.572 3.059 4.133 5.534.193.855-1.134 1.146-1.327.292-.45-1.985-1.129-3.844-3.224-4.533-.832-.273-.417-1.567.418-1.293zm-.159 10.421a.609.609 0 0 0 .108.035c2.113.493 3.162.81 3.68 1.006.309.117.697.11.94-.112l1.576-1.432c.244-.222.24-.58.051-.851-.638-.914-.775-2.185-.796-2.924a.623.623 0 0 0-.02-.137c.142-1.47-.263-3.08-1.249-4.481C7.97.067 4.437-.836 2.045.847-.346 2.53-.69 6.16 1.277 8.957c1.117 1.587 2.739 2.561 4.37 2.801z"/></g><g><path fill="#7c7c7c" d="M13.773 14.336l-.511-.124.067.567a.84.84 0 0 1-.828.83.839.839 0 0 1-.845-.83.833.833 0 0 1 .309-.649l.382-.316-.543-.533.512-.521.524.516.313-.342a.828.828 0 0 1 .608-.273.839.839 0 0 1 .012 1.675zm-.02-2.57a1.706 1.706 0 0 0-.903.265l-.545-.536-1.767 1.796.523.514a1.71 1.71 0 0 0-.3.981 1.734 1.734 0 0 0 1.747 1.718c.802-.006 1.41-.698 1.595-1.45.765-.184 1.404-.75 1.397-1.57a1.734 1.734 0 0 0-1.746-1.718z"/></g></g></svg>