<svg xmlns="http://www.w3.org/2000/svg" width="53" height="53" viewBox="0 0 53 53">
  <g id="noun_Close_2389681" transform="translate(-1 -1)">
    <path id="Path_90" data-name="Path 90" d="M26.7,8.706a2.414,2.414,0,0,0-3.4,0L17.74,14.258,12.212,8.706a2.424,2.424,0,1,0-3.428,3.428l5.552,5.528L8.784,23.19a2.414,2.414,0,1,0,3.4,3.4l5.552-5.528,5.528,5.528a2.414,2.414,0,0,0,3.4-3.4l-5.528-5.528,5.528-5.528A2.414,2.414,0,0,0,26.7,8.706Z" transform="translate(9.76 9.838)" fill="#c13458"/>
    <path id="Path_91" data-name="Path 91" d="M27.5,1A26.5,26.5,0,1,0,54,27.5,26.5,26.5,0,0,0,27.5,1Zm0,48.182A21.682,21.682,0,1,1,49.182,27.5,21.682,21.682,0,0,1,27.5,49.182Z" fill="#c13458"/>
  </g>
</svg>
