<svg xmlns="http://www.w3.org/2000/svg" width="18" height="18" viewBox="0 0 18 18"><g><g><path fill="#fff" d="M9 .002a8.827 8.827 0 0 0-9 8.624 8.461 8.461 0 0 0 3 6.42v2.58a.375.375 0 0 0 .573.317l2.09-1.305A9.285 9.285 0 0 0 9 17.25a8.827 8.827 0 0 0 9-8.624 8.827 8.827 0 0 0-9-8.624z"/></g><g><path fill="#c13458" d="M14.924 6.151a.375.375 0 0 0-.48-.105l-3.9 2.126-2.426-2.08a.375.375 0 0 0-.51.02l-4.499 4.5a.375.375 0 0 0 .445.593l3.9-2.126 2.428 2.081c.149.128.37.12.51-.02l4.499-4.499a.375.375 0 0 0 .033-.49z"/></g></g></svg>