<svg xmlns="http://www.w3.org/2000/svg" width="14" height="14" viewBox="0 0 14 14">
  <g id="noun_instagram_304156" transform="translate(-5 -5)">
    <path id="Path_78" data-name="Path 78" d="M16.667,5H7.333A2.33,2.33,0,0,0,5,7.333v9.333A2.33,2.33,0,0,0,7.333,19h9.333A2.33,2.33,0,0,0,19,16.667V7.333A2.33,2.33,0,0,0,16.667,5Zm.778,11.667a.77.77,0,0,1-.778.778H7.333a.77.77,0,0,1-.778-.778V11.222H9A3.236,3.236,0,0,0,8.889,12a3.111,3.111,0,0,0,6.222,0A2.611,2.611,0,0,0,15,11.222h2.442Zm-7-4.667A1.556,1.556,0,1,1,12,13.556,1.56,1.56,0,0,1,10.444,12Zm7-2.333H14.053a3.1,3.1,0,0,0-4.107,0H6.556V7.333a.77.77,0,0,1,.778-.778h9.333a.77.77,0,0,1,.778.778Z" fill="#fff"/>
    <rect id="Rectangle_1271" data-name="Rectangle 1271" width="1" height="1" transform="translate(15 8)" fill="#fff"/>
  </g>
</svg>
