<svg xmlns="http://www.w3.org/2000/svg" width="32" height="32" viewBox="0 0 32 32"><defs><clipPath id="ze2ha"><path fill="#fff" d="M0 16C0 8 8 0 16 0s16 8 16 16-8 16-16 16S0 24 0 16z"/></clipPath></defs><g><g><path fill="#c13458" d="M17.57 19.253a4.5 4.5 0 0 1-4.548-2.282 4.244 4.244 0 0 1-.486-1.35 4.407 4.407 0 0 1 .096-2.067c.17-.602.466-1.161.868-1.64l1.374-.057.075 1.777-1.236.23a3.38 3.38 0 0 0 2.314 4.174l.85-.926 1.467 1.005zm1.704-.5a1.125 1.125 0 0 0-.29-1.56l-1.467-1.006a1.125 1.125 0 0 0-1.464.165l-.31.337a2.199 2.199 0 0 1-.746-.8 2.227 2.227 0 0 1-.288-1.065l.45-.084c.55-.103.94-.595.916-1.153L16 11.81a1.125 1.125 0 0 0-1.17-1.077l-1.375.057a1.128 1.128 0 0 0-.817.401c-.503.6-.873 1.3-1.087 2.053a5.507 5.507 0 0 0-.123 2.575 5.353 5.353 0 0 0 .614 1.71c.039.068.083.147.134.228a5.628 5.628 0 0 0 5.549 2.61c.314-.043.595-.218.773-.48l.776-1.134z"/></g><g><path fill="none" stroke="#e2e2e2" stroke-miterlimit="50" stroke-width="4" d="M0 16C0 8 8 0 16 0v0c8 0 16 8 16 16v0c0 8-8 16-16 16v0C8 32 0 24 0 16z" clip-path="url(&quot;#ze2ha&quot;)"/></g></g></svg>