<svg xmlns="http://www.w3.org/2000/svg" width="13" height="13" viewBox="0 0 13 13"><g><g><path fill="#c13458" d="M1.625 11.379a3.246 3.246 0 0 1 3.25-3.243h3.25a3.246 3.246 0 0 1 3.25 3.243zM6.5 1.65a2.435 2.435 0 0 1 2.438 2.432A2.435 2.435 0 0 1 6.5 6.514a2.435 2.435 0 0 1-2.437-2.432A2.435 2.435 0 0 1 6.5 1.65zm2.81-.524a4.069 4.069 0 0 0-5.62 0 4.047 4.047 0 0 0-.243 5.602A4.873 4.873 0 0 0 0 11.378C0 12.275.728 13 1.625 13h9.75c.898 0 1.625-.726 1.625-1.621a4.873 4.873 0 0 0-3.447-4.65 4.047 4.047 0 0 0-.243-5.603z"/></g></g></svg>