<svg xmlns="http://www.w3.org/2000/svg" width="16" height="16" viewBox="0 0 16 16"><g><g><path fill="#7c7c7c" d="M.375 8.02h15.25a9.962 9.962 0 0 1-.205 1.81H.58a9.968 9.968 0 0 1-.205-1.81zm6.443-4.57a.273.273 0 1 0 0 .546.273.273 0 0 0 0-.545zm-2-.81c.258.528.664 1.075 1.108 1.577.556.629 1.167 1.17 1.648 1.475-.015.079-.033.159-.046.239a1.814 1.814 0 0 0-2.51-.55c-.263-.847-.385-1.695-.2-2.742zm-1.602-.262c.556.318.915.726 1.142 1.164-.005.754.148 1.425.364 2.082-.31.31-.512.727-.535 1.192a1.275 1.275 0 0 0-2.37.647c.001.066.009.13.018.193h-.773c-.448-1.13-.434-2.253-.022-3.2.409-1.007 1.365-1.719 2.176-2.078zm1.858-.073l1.256.516a.268.268 0 0 0-.24.267.273.273 0 1 0 .49-.165l.733.295a.273.273 0 0 0 .142.505c.205-.033.269-.155.267-.335l.528.216c.057.074.06.17.074.227a.363.363 0 0 0-.688.165c0 .2.163.363.364.363h.017c-.143.29-.266.61-.358.953a6.486 6.486 0 0 1-.523-.414.36.36 0 0 0-.045-.72.364.364 0 0 0-.364.351 9.86 9.86 0 0 1-.528-.55c-.419-.541-.872-1.1-1.125-1.674zm6.273-.806c.06.059.164.066.233.017.939-.672 2.024-.58 2.733-.006.708.575 1.06 1.633.448 3.008a.185.185 0 0 0 .017.176c.439.603.553 1.036.472 1.475-.079.427-.37.889-.801 1.487H9.142l.977-1.027c.494.003.928.036 1.205.312a.19.19 0 0 0 .258.003.19.19 0 0 0 .003-.259c-.313-.313-.724-.38-1.136-.397l1.148-1.203c.57-.004 1.067.033 1.363.312a.19.19 0 0 0 .259.003.19.19 0 0 0 .003-.258c-.353-.352-.828-.396-1.29-.403l1.108-1.163c.075-.076.04-.209-.04-.272-.098-.063-.14-.015-.222.022l-1.017 1.061c-.067-.46-.23-.933-.54-1.243a.186.186 0 0 0-.17-.056c-.132.024-.19.22-.09.312.264.265.444.843.482 1.322l-1.301 1.356c-.053-.504-.214-1.047-.557-1.39a.186.186 0 0 0-.17-.057c-.132.024-.19.221-.091.312.294.294.487.974.494 1.476L8.636 7.656h-.983c.105-.23.165-.481.165-.75.002-1.23.361-2.3.875-2.984a.185.185 0 0 0 .017-.187c-.179-.358-.306-.658-.346-.942-.092-.866.772-1.551 1.534-1.714.527-.1 1.126.111 1.449.42zM5.795.364c.842-.02 1.737.47 2.347 1.492a1.788 1.788 0 0 0-.074 1.283L4.835 1.817c-.13-.039-.178.042-.244.119-.096.35-.157.683-.193.999a2 2 0 0 0-.756-.79c.37-1.04 1.24-1.738 2.153-1.781zM5.79 0C4.78.024 3.826.694 3.34 1.947c-1.272.469-2.18 1.32-2.635 2.366C.268 5.318.247 6.49.676 7.656H.165A.188.188 0 0 0 0 7.838c0 2.179.691 4.207 1.784 5.697 1.09 1.486 2.591 2.441 4.205 2.446 1.378.034 2.92.014 4.011 0 1.618 0 3.123-.961 4.216-2.452C15.309 12.04 16 10.014 16 7.838a.189.189 0 0 0-.182-.182h-.926c.36-.513.63-.958.716-1.424.096-.518-.065-1.05-.483-1.657.604-1.448.234-2.685-.585-3.349-.805-.652-2.01-.737-3.046-.068a1.956 1.956 0 0 0-1.67-.437c-.542.107-1.05.424-1.432.886C7.726.547 6.753-.022 5.79 0z"/></g></g></svg>