<svg xmlns="http://www.w3.org/2000/svg" width="30" height="30" viewBox="0 0 30 30"><g><g><path fill="#c13458" d="M29.297 15.036c-.022 1.163-.16 2.3-.384 3.394H1.087a18.69 18.69 0 0 1-.384-3.394zM12.784 6.47a.511.511 0 1 0 0 1.022.511.511 0 0 0 0-1.022zM9.034 4.95c.483.99 1.245 2.016 2.077 2.958 1.043 1.18 2.188 2.194 3.09 2.766-.029.147-.062.297-.085.447a3.402 3.402 0 0 0-4.709-1.032c-.492-1.586-.72-3.177-.373-5.14zm-3.004-.49zM8.17 6.641c-.009 1.414.279 2.672.682 3.905a3.392 3.392 0 0 0-1.001 2.234 2.392 2.392 0 0 0-2.057-1.17 2.39 2.39 0 0 0-2.386 2.383c0 .123.014.244.032.362H1.992c-.84-2.117-.815-4.224-.042-6.001.766-1.887 2.558-3.222 4.08-3.895 1.042.595 1.716 1.36 2.141 2.182zm1.342-2.32l2.355.968a.503.503 0 0 0-.448.5.511.511 0 1 0 .917-.308l1.374.553a.511.511 0 0 0 .266.947c.386-.061.505-.292.501-.628l.99.405c.108.138.114.316.14.425a.681.681 0 1 0-.607.99h.031a9.628 9.628 0 0 0-.671 1.787c-.3-.206-.628-.473-.98-.776a.677.677 0 0 0 .596-.67.681.681 0 0 0-1.363-.022c-.334-.324-.67-.668-.991-1.032-.786-1.014-1.636-2.063-2.11-3.139zm11.762-1.51c.114.11.308.124.437.031 1.76-1.26 3.795-1.088 5.124-.01 1.33 1.077 1.987 3.061.842 5.639a.347.347 0 0 0 .032.33c.821 1.131 1.036 1.943.884 2.766-.148.801-.692 1.666-1.502 2.788h-9.95l1.832-1.926c.926.006 1.74.067 2.258.585.126.128.357.13.485.005a.355.355 0 0 0 .005-.484c-.587-.587-1.358-.712-2.13-.745l2.152-2.255c1.068-.008 2.001.062 2.556.585.126.128.357.13.485.005a.355.355 0 0 0 .005-.484c-.66-.66-1.552-.742-2.418-.755l2.078-2.182c.14-.142.075-.39-.074-.51-.185-.117-.262-.027-.416.042l-1.907 1.99c-.127-.862-.431-1.75-1.013-2.33a.348.348 0 0 0-.32-.107c-.247.045-.355.415-.17.586.498.496.834 1.58.906 2.479l-2.44 2.543c-.1-.946-.4-1.964-1.044-2.607a.348.348 0 0 0-.32-.106c-.247.044-.355.414-.17.585.552.55.914 1.825.927 2.766l-2.216 2.32H14.35c.197-.43.31-.902.31-1.405.003-2.31.676-4.313 1.64-5.596.073-.1.086-.24.032-.352-.336-.67-.574-1.233-.65-1.766-.172-1.624 1.447-2.908 2.876-3.213.989-.188 2.112.208 2.717.787zM10.866.681c1.578-.037 3.256.882 4.4 2.799A3.353 3.353 0 0 0 15 5.33c.027.187.073.371.128.554L9.066 3.406c-.244-.072-.333.08-.458.223-.18.657-.295 1.282-.362 1.873-.39-.737-.992-1.247-1.417-1.479.693-1.952 2.326-3.26 4.037-3.34zm-.01-.68c-1.892.043-3.682 1.3-4.592 3.649-2.386.878-4.09 2.475-4.943 4.437-.819 1.883-.858 4.08-.053 6.267h-.96a.353.353 0 0 0-.308.34c0 4.086 1.296 7.89 3.345 10.683 2.045 2.787 4.859 4.577 7.884 4.586 2.585.065 5.476.027 7.521 0 3.034 0 5.855-1.802 7.905-4.597C28.705 22.573 30 18.776 30 14.695a.354.354 0 0 0-.34-.34h-1.737c.676-.962 1.18-1.795 1.342-2.67.18-.972-.122-1.969-.906-3.108 1.134-2.713.438-5.033-1.097-6.278-1.509-1.223-3.768-1.382-5.71-.127a3.668 3.668 0 0 0-3.132-.82c-1.016.2-1.97.794-2.685 1.66-1.249-1.986-3.073-3.053-4.88-3.01z"/></g></g></svg>