<svg xmlns="http://www.w3.org/2000/svg" width="9" height="29" viewBox="0 0 9 29"><g><g><path fill="#c13458" d="M8.95 16.916c-.148 1.21-1.016 2.226-1.016 3.804 0 1.382 1.04 3.449 1.04 5.516 0 1.04-.698 2.764-1.382 2.764-.698 0-1.383-.685-1.725-.685-.343 0-.697.685-1.382.685-.697 0-1.04-.685-1.382-.685-.318.025-1.04.685-1.725.685-.697 0-1.382-1.725-1.382-2.764 0-2.067 1.04-4.134 1.04-5.516 0-1.578-.869-2.593-1.016-3.804zm.024-6.214v4.832H-.004v-4.832zM6.063 3.828C6.662 5.174 8.546 7.216 8.9 9.32H.057c.367-2.104 2.25-4.146 2.85-5.492zM5.525 0c.342 0 1.027.355 1.027 1.04v1.724c0 .343-.355.318-.685.343H3.103c-.318.024-.685 0-.685-.343V1.04C2.418.355 3.103 0 3.445 0z"/></g></g></svg>