<svg xmlns="http://www.w3.org/2000/svg" width="24" height="24" viewBox="0 0 24 24">
  <path id="star_1" d="M247.883,297.648a3.03,3.03,0,0,0-2.463-2.125l-4.66-.638-2.021-4.406a2.954,2.954,0,0,0-5.417,0l-2.02,4.406-4.66.638a3.028,3.028,0,0,0-2.463,2.125,3.2,3.2,0,0,0,.789,3.224l3.411,3.35-.859,4.8a3.173,3.173,0,0,0,1.187,3.09,2.9,2.9,0,0,0,3.2.215l4.129-2.33,4.13,2.33a2.9,2.9,0,0,0,3.2-.215,3.176,3.176,0,0,0,1.186-3.09l-.861-4.8,3.412-3.35a3.2,3.2,0,0,0,.783-3.224Zm-7.449,5.484,1.159,6.463-5.563-3.141-5.562,3.141,1.158-6.463-4.594-4.52,6.278-.853,2.721-5.935,2.722,5.935,6.278.853Z" transform="translate(-224.03 -288.705)" fill="#fff" fill-rule="evenodd"/>
</svg>
