<svg xmlns="http://www.w3.org/2000/svg" width="48" height="48" viewBox="0 0 48 48"><defs><clipPath id="8lzwa"><path fill="#fff" d="M0 24C0 10.745 10.745 0 24 0s24 10.745 24 24-10.745 24-24 24S0 37.255 0 24z"/></clipPath></defs><g><g><path fill="none" stroke="#72b55b" stroke-miterlimit="50" stroke-width="4" d="M0 24C0 10.745 10.745 0 24 0s24 10.745 24 24-10.745 24-24 24S0 37.255 0 24z" clip-path="url(&quot;#8lzwa&quot;)"/></g><g><path fill="#72b55b" d="M32.675 18.933l-1.58-1.603c-.216-.22-.48-.33-.789-.33-.31 0-.573.11-.79.33l-7.618 7.743-3.414-3.477c-.217-.22-.48-.33-.79-.33-.31 0-.573.11-.79.33l-1.579 1.603A1.1 1.1 0 0 0 15 24c0 .314.108.582.325.802l4.204 4.266 1.58 1.602c.216.22.48.33.79.33.309 0 .572-.11.789-.33l1.58-1.602 8.407-8.533a1.1 1.1 0 0 0 .325-.801 1.1 1.1 0 0 0-.325-.801z"/></g></g></svg>