<svg xmlns="http://www.w3.org/2000/svg" width="40" height="29" viewBox="0 0 40 29"><g><g><path fill="#c13458" d="M8.666 17.028h3.566a1.417 1.417 0 0 0 1.41-1.58l-.158-1.358a1.418 1.418 0 0 0-1.41-1.253h-3.25c-.72 0-1.327.539-1.41 1.253l-.158 1.358a1.416 1.416 0 0 0 1.41 1.58"/></g><g><path fill="#c13458" d="M18.206 7.166h3.566a1.417 1.417 0 0 0 1.41-1.58l-.159-1.358a1.418 1.418 0 0 0-1.41-1.253h-3.25c-.72 0-1.326.54-1.409 1.253l-.158 1.358a1.416 1.416 0 0 0 1.41 1.58"/></g><g><path fill="#c13458" d="M40 15.074v8.714c0 1.516-1.166 2.885-3.283 3.854-1.913.876-4.44 1.358-7.115 1.358-2.674 0-5.201-.482-7.115-1.358-1.1-.503-1.942-1.115-2.498-1.798-.556.683-1.397 1.295-2.495 1.798-1.912.876-4.436 1.358-7.108 1.358-2.671 0-5.195-.482-7.107-1.358C1.165 26.672 0 25.304 0 23.788v-8.714c0-1.516 1.165-2.885 3.28-3.854 1.722-.79 3.944-1.258 6.322-1.343V5.212c0-1.516 1.165-2.885 3.28-3.854C14.792.482 17.317 0 19.989 0c2.671 0 5.195.482 7.107 1.358 2.114.97 3.28 2.338 3.28 3.854v4.665c2.385.084 4.613.552 6.341 1.343 2.117.969 3.283 2.338 3.283 3.854zm-1.569 0c0-.81-.878-1.695-2.348-2.368-1.718-.787-4.02-1.22-6.48-1.22l-.09.001c-.127 0-.254.002-.38.005l-.057.002a20.66 20.66 0 0 0-.398.013c-.015 0-.03.002-.044.003-.136.006-.271.013-.406.022l-.027.002c-.14.01-.279.02-.417.033l-.013.002a18.55 18.55 0 0 0-.425.043h-.006c-.143.017-.284.035-.425.054h-.004c-.14.02-.28.041-.42.064l-.017.003c-.134.022-.266.045-.398.07l-.028.005c-.127.025-.253.05-.378.077l-.043.01c-.12.026-.238.052-.354.08l-.063.017a14.52 14.52 0 0 0-.324.084l-.09.026c-.097.027-.193.054-.287.083-.041.012-.081.026-.123.04-.081.025-.163.05-.243.077l-.133.048c-.074.026-.148.052-.22.079-.05.018-.097.038-.146.057-.065.026-.132.05-.196.077l-.152.067c-.06.025-.12.05-.177.077l-.058.027-.077.036-.066.032-.067.033-.07.036-.059.03-.073.04-.052.027-.065.037-.057.031-.06.035-.057.035c-.019.01-.036.021-.054.032l-.06.038-.046.029-.065.042-.042.028-.065.043-.032.023-.07.05-.023.017-.076.056-.013.01a5.052 5.052 0 0 0-.081.064l-.014.012c-.545.441-.873.915-.934 1.371l-.001.014a1.16 1.16 0 0 0-.01.139c0 .709.673 1.475 1.826 2.106.165.09.34.178.523.262 1.718.786 4.02 1.22 6.481 1.22.17 0 .338-.003.506-.007 2.27-.055 4.375-.48 5.975-1.213 1.057-.484 1.808-1.077 2.146-1.673l.006-.01c.012-.023.025-.045.036-.068l.005-.01.032-.068.017-.04.016-.037.015-.044.012-.034.021-.071.002-.006c.012-.049.022-.097.029-.145l.001-.01c.006-.043.009-.087.01-.13v-.022zM13.516 2.844c-1.468.673-2.345 1.558-2.345 2.368 0 .81.877 1.695 2.345 2.368.644.295 1.37.54 2.154.732 1.308.318 2.782.488 4.319.488.596 0 1.182-.026 1.754-.076l.052-.004c1.443-.13 2.784-.416 3.929-.838l.067-.023.173-.069.169-.066.052-.023.276-.12c.688-.316 1.247-.678 1.646-1.057a82.533 82.533 0 0 1 .077-.076l.008-.008.066-.069.007-.008a3.021 3.021 0 0 0 .16-.189l.027-.034c.206-.276.325-.555.35-.827l.002-.025.001-.033.001-.043c0-.81-.876-1.695-2.345-2.368-1.716-.787-4.014-1.22-6.472-1.22s-4.757.433-6.473 1.22zm-9.602 9.862c-1.469.673-2.345 1.558-2.345 2.368 0 .05.003.101.01.153.102.767.958 1.584 2.335 2.215.536.246 1.13.457 1.766.631 1.402.384 3.017.588 4.706.588.871 0 1.72-.055 2.532-.16 1.48-.192 2.833-.551 3.94-1.059.408-.186.769-.389 1.079-.602l.014-.01.085-.06.017-.012.07-.051.029-.022.033-.026c.115-.09.222-.181.32-.273l.018-.018.06-.058.006-.007.067-.07.003-.003c.07-.076.133-.152.19-.228.009-.011.016-.022.024-.034l.032-.044c.172-.25.272-.502.294-.749l.003-.025v-.034l.002-.042c0-.05-.003-.102-.01-.153-.102-.767-.958-1.584-2.335-2.215-1.716-.787-4.015-1.22-6.473-1.22-2.457 0-4.756.433-6.472 1.22z"/></g><g><path fill="#c13458" d="M26.502 14.09l-.158 1.358a1.416 1.416 0 0 0 1.41 1.58h3.57a1.416 1.416 0 0 0 1.41-1.58l-.157-1.358a1.418 1.418 0 0 0-1.41-1.253h-3.254c-.721 0-1.328.539-1.41 1.253"/></g></g></svg>