<svg xmlns="http://www.w3.org/2000/svg" width="8" height="10" viewBox="0 0 8 10"><g><g><path fill="#d5d5d5" d="M6.004 8.224a4 4 0 0 1-4.042-2.027 3.772 3.772 0 0 1-.432-1.2 3.918 3.918 0 0 1 .085-1.838 3.957 3.957 0 0 1 .771-1.458l1.222-.05.067 1.579-1.099.205a3.004 3.004 0 0 0 2.057 3.71l.756-.823 1.304.893zM7.52 7.78a1 1 0 0 0-.258-1.387L5.958 5.5a1 1 0 0 0-1.302.146l-.275.3a1.955 1.955 0 0 1-.664-.71 1.98 1.98 0 0 1-.255-.948l.4-.074a1 1 0 0 0 .814-1.026l-.067-1.58a1 1 0 0 0-1.04-.956l-1.222.05a1.003 1.003 0 0 0-.727.357 4.948 4.948 0 0 0-.966 1.825 4.895 4.895 0 0 0-.109 2.288 4.758 4.758 0 0 0 .546 1.52c.034.06.074.131.119.204a5.003 5.003 0 0 0 4.932 2.32 1 1 0 0 0 .687-.427l.69-1.009z"/></g></g></svg>