<svg xmlns="http://www.w3.org/2000/svg" width="24" height="24" viewBox="0 0 24 24">
  <g id="noun_Time_1860943" transform="translate(-20 -20)">
    <g id="Group_44" data-name="Group 44" transform="translate(20 20)">
      <path id="Path_5576" data-name="Path 5576" d="M32,972.362a12,12,0,1,1-12,12A12.018,12.018,0,0,1,32,972.362Zm0,2.4a9.6,9.6,0,1,0,9.6,9.6A9.582,9.582,0,0,0,32,974.762Zm0,2.4a1.2,1.2,0,0,1,1.2,1.2v6a1.2,1.2,0,0,1-1.2,1.2H26.8a1.2,1.2,0,1,1,0-2.4h4v-4.8A1.2,1.2,0,0,1,32,977.162Z" transform="translate(-20 -972.362)" fill="#c13458"/>
    </g>
  </g>
</svg>
