<svg xmlns="http://www.w3.org/2000/svg" width="60" height="14" viewBox="0 0 60 14"><g><g><path fill="#2394bc" d="M8.795 3h2.54L7.56 11.974H5.02L2.866 4.25c1.521.75 2.885 2.259 3.32 3.647l.256 1.204L8.795 3zm16.502 5.4zm0 0h1.699l-.732-2.908s-.915 2.904-.967 2.909zM30 11.99h-2.222l-.36-1.79h-2.82l-.694 1.782h-2.52l3.567-8.231c.248-.564.683-.723 1.255-.723h1.858zm-10.454-5.33c1.384.62 2.025 1.378 2.016 2.368-.02 1.806-1.66 2.973-4.18 2.973-1.076-.011-2.114-.223-2.678-.464l.336-1.953.316.138c.781.325 1.296.463 2.254.463.69 0 1.432-.269 1.442-.851 0-.38-.316-.656-1.245-1.083-.91-.416-2.124-1.11-2.105-2.36.01-1.694 1.68-2.879 4.051-2.879.93 0 1.681.194 2.155.37l-.326 1.88-.218-.094a4.325 4.325 0 0 0-1.788-.332c-.949 0-1.374.379-1.384.75 0 .406.515.675 1.354 1.073zm-4.843-3.66l-1.5 8.982H10.8L12.303 3z"/></g><g><path fill="#efc75e" d="M5.457 4.235c-.188-.73-.787-1.223-1.6-1.234H.039L0 3.18c2.978.734 5.477 2.993 6.288 5.117z"/></g><g><path fill="#e2574c" d="M51.996 7A6.998 6.998 0 1 1 38 7a6.999 6.999 0 1 1 13.996 0z"/></g><g><path fill="#f4b459" d="M53 0a6.96 6.96 0 0 0-4.181 1.396h.005c.23.223.483.379.678.634l-1.456.023c-.228.23-.436.481-.632.742h2.568c.195.234.376.438.54.697h-3.573c-.131.225-.252.457-.358.698h4.337c.114.24.215.421.301.675h-4.895a6.743 6.743 0 0 0-.194.74h5.294c.052.243.092.467.12.695h-5.52c-.022.23-.034.464-.034.7h5.593c0 .248-.017.478-.042.7h-5.516c.023.237.058.47.105.7h5.286a8.255 8.255 0 0 1-.197.692h-4.91c.073.24.164.472.262.698h4.347c-.12.255-.257.459-.407.697h-3.585c.142.245.298.48.467.703l2.579.039c-.22.264-.502.423-.759.654.014.01-.41-.002-1.247-.015A6.974 6.974 0 0 0 53 14a7 7 0 1 0 0-14z"/></g></g></svg>