<svg xmlns="http://www.w3.org/2000/svg" width="30" height="9" viewBox="0 0 30 9">
  <g id="visa" transform="translate(0 -100.23)">
    <g id="Group_6" data-name="Group 6" transform="translate(2.866 100.23)">
      <g id="Group_5" data-name="Group 5" transform="translate(0 0)">
        <path id="Path_30" data-name="Path 30" d="M36.7,100.23l-1.5,8.982h2.4l1.5-8.982Zm7.242,3.659c-.839-.4-1.353-.667-1.353-1.074.01-.37.435-.75,1.383-.75a4.325,4.325,0,0,1,1.788.333l.218.093.326-1.879a6.279,6.279,0,0,0-2.155-.37c-2.371,0-4.041,1.185-4.051,2.879-.02,1.25,1.2,1.944,2.1,2.36.929.427,1.245.7,1.245,1.083-.01.582-.751.851-1.442.851a5.05,5.05,0,0,1-2.253-.463l-.316-.138-.336,1.953a7.768,7.768,0,0,0,2.678.464c2.52,0,4.159-1.167,4.18-2.972C45.967,105.267,45.326,104.509,43.942,103.889Zm8.518-3.631H50.6a1.2,1.2,0,0,0-1.255.723l-3.567,8.232H48.3l.694-1.782h2.819l.36,1.789H54.4Zm-2.767,5.373c.049,0,.967-2.909.967-2.909l.731,2.909Zm-16.5-5.4-2.352,6.1-.256-1.2a6.793,6.793,0,0,0-3.321-3.647l2.154,7.721h2.54l3.775-8.972h-2.54Z" transform="translate(-27.262 -100.23)" fill="#2394bc"/>
      </g>
    </g>
    <path id="Path_31" data-name="Path 31" d="M5.457,101.481a1.607,1.607,0,0,0-1.6-1.233H.039L0,100.425a9.37,9.37,0,0,1,6.288,5.118Z" transform="translate(0 -0.016)" fill="#efc75e"/>
  </g>
</svg>
