<svg xmlns="http://www.w3.org/2000/svg" width="13" height="9" viewBox="0 0 13 9">
  <path id="youtube-play" d="M13,153.14h-.022c0-.126,0-.25,0-.376s-.013-.246-.022-.37c-.012-.153-.027-.305-.042-.458a4.091,4.091,0,0,0-.048-.457c-.047-.225-.105-.447-.173-.665a1.462,1.462,0,0,0-.29-.539,1.708,1.708,0,0,0-1.149-.576c-.241-.024-.484-.04-.725-.054-.222-.014-.445-.024-.668-.032q-.5-.019-1.006-.033c-.329-.009-.658-.018-.985-.021-.645,0-1.29-.01-1.934-.005s-1.307.022-1.96.035c-.276.005-.551.014-.827.022q-.131,0-.261.012c-.286.017-.572.03-.857.054a3.874,3.874,0,0,0-.572.078,1.534,1.534,0,0,0-.967.673,2.368,2.368,0,0,0-.312.847c-.046.243-.073.489-.1.736s-.04.5-.055.748c-.013.2-.022.408-.022.612q0,.868.01,1.738c0,.145.012.29.022.434.016.207.034.413.052.619.013.153.022.307.047.458a3.759,3.759,0,0,0,.207.76,1.478,1.478,0,0,0,.965.909,4.049,4.049,0,0,0,.909.153c.247.023.5.031.744.042.2.009.41.017.615.022q.482.013.963.022c.3.005.6.012.893.014.523.005,1.047.014,1.568.01.655-.005,1.31-.022,1.966-.035.269-.005.537-.014.806-.022.088,0,.178-.006.267-.012.3-.017.59-.031.884-.054a4.182,4.182,0,0,0,.553-.065,1.55,1.55,0,0,0,1.193-1,4.035,4.035,0,0,0,.248-1.159c.018-.225.04-.449.052-.673.016-.288.03-.576.033-.864C13,154.161,13,153.651,13,153.14Zm-7.843,2.578v-3.6l3.511,1.807-3.511,1.8Z" transform="translate(0 -149.551)" fill="#fff"/>
</svg>
